HIERARCHY
ROOT Hips
{
    OFFSET 0.000000 0.000000 0.000000
    CHANNELS 6 Xposition Yposition Zposition Zrotation Xrotation Yrotation
        JOINT Spine1
        {
            OFFSET -0.000000 23.269398 0.000000
            CHANNELS 3 Zrotation Xrotation Yrotation
            JOINT Neck
            {
                OFFSET -0.000000 18.032967 0.000000
                CHANNELS 3 Zrotation Xrotation Yrotation
                JOINT Head
                {
                    OFFSET -0.000000 13.091072 1.689171
                    CHANNELS 3 Zrotation Xrotation Yrotation
                    End Site
                    {
                        OFFSET -0.000000 16.891708 0.000000
                    }
                }
            }
            JOINT LeftShoulder
            {
                OFFSET 3.336773 14.146137 -0.012206
                CHANNELS 3 Zrotation Xrotation Yrotation
                JOINT LeftArm
                {
                    OFFSET 11.765518 0.000000 0.000000
                    CHANNELS 3 Zrotation Xrotation Yrotation
                    JOINT LeftForeArm
                    {
                        OFFSET 25.163450 0.000000 0.000000
                        CHANNELS 3 Zrotation Xrotation Yrotation
                        JOINT LeftHand
                        {
                            OFFSET 21.783554 0.000000 0.000000
                            CHANNELS 3 Zrotation Xrotation Yrotation
                            End Site
                            {
                                OFFSET 12.668781 0.000000 0.000000
                            }
                        }
                    }
                }
            }
            JOINT RightShoulder
            {
                OFFSET -3.409204 14.146137 -0.012206
                CHANNELS 3 Zrotation Xrotation Yrotation
                JOINT RightArm
                {
                    OFFSET -11.765518 0.000000 0.000000
                    CHANNELS 3 Zrotation Xrotation Yrotation
                    JOINT RightForeArm
                    {
                        OFFSET -25.163450 0.000000 0.000000
                        CHANNELS 3 Zrotation Xrotation Yrotation
                        JOINT RightHand
                        {
                            OFFSET -21.783554 0.000000 0.000000
                            CHANNELS 3 Zrotation Xrotation Yrotation
                            End Site
                            {
                                OFFSET -12.668781 0.000000 0.000000
                            }
                        }
                    }
                }
            }
        }
        JOINT LeftUpLeg
    {
        OFFSET 8.445854 0.000000 0.000000
        CHANNELS 3 Zrotation Xrotation Yrotation
        JOINT LeftLeg
        {
            OFFSET -0.000000 -40.674755 0.000000
            CHANNELS 3 Zrotation Xrotation Yrotation
            JOINT LeftFoot
            {
                OFFSET -0.000000 -37.111794 0.000000
                CHANNELS 3 Zrotation Xrotation Yrotation
                JOINT LeftToeBase
                {
                    OFFSET -0.000000 -5.489805 12.668781
                    CHANNELS 3 Zrotation Xrotation Yrotation
                    End Site
                    {
                        OFFSET -0.000000 0.000000 3.378341
                    }
                }
            }
        }
    }
    JOINT RightUpLeg
    {
        OFFSET -8.445854 0.000000 0.000000
        CHANNELS 3 Zrotation Xrotation Yrotation
        JOINT RightLeg
        {
            OFFSET -0.000000 -40.674755 0.000000
            CHANNELS 3 Zrotation Xrotation Yrotation
            JOINT RightFoot
            {
                OFFSET -0.000000 -37.111794 0.000000
                CHANNELS 3 Zrotation Xrotation Yrotation
                JOINT RightToeBase
                {
                    OFFSET -0.000000 -5.489805 12.668781
                    CHANNELS 3 Zrotation Xrotation Yrotation
                    End Site
                    {
                        OFFSET -0.000000 0.000000 3.378341
                    }
                }
            }
        }
    }
}
MOTION
Frames:    14
Frame Time:    0.008333
-7.588943    60.177315    104.982399    4.189288    16.211178    170.505951    4.700146    28.363001    1.221466    -4.834486    1.507017    1.668989    1.290930    3.767561    0.806859    6.942214    4.207368    5.875599    -36.743477    28.455931    -44.548759    61.812225    -10.191196    -78.824303    6.008979    0.105414    7.451670    -8.603866    2.915345    2.978271    52.059944    -4.289175    44.406956    -24.413391    13.496533    109.674263    12.123726    -0.779835    -5.920843    15.702416    -51.111828    -3.763307    -65.120590    60.654884    61.686516    5.706011    -1.814707    17.887796    -4.576574    -4.275878    4.206027    -15.499431    -47.751495    -5.598044    -12.749182    66.788246    9.116487    18.034861    1.043579    15.200274    -0.186867    -0.102411    0.785278    
-7.015339    59.621990    105.059479    7.457587    15.543832    170.052292    8.111643    28.262691    0.675503    -4.756253    1.470553    1.547609    1.370637    3.822372    0.680906    6.940942    4.246172    5.912932    -36.739559    28.729712    -44.511192    62.915596    -9.791852    -78.550385    6.249778    0.329301    6.943134    -8.612659    2.928361    2.953384    52.177544    -4.361154    44.476196    -22.214895    13.531752    109.642868    13.650994    -0.862687    -6.980190    20.361158    -52.518978    -1.937501    -68.529518    62.127861    63.961964    5.771310    -2.301055    17.863523    -4.615240    -4.327809    4.208085    -11.763840    -48.051174    -4.836916    -11.997906    67.241119    7.598824    18.011442    0.938814    15.160981    -0.183590    -0.108041    0.785501    
-7.584547    60.181351    104.981316    4.189223    16.198904    170.498398    4.640205    28.371458    1.170763    -4.687376    1.413580    1.442507    1.470139    3.892154    0.567854    6.933712    4.290658    5.937949    -36.792198    28.918167    -44.435070    64.041969    -9.382174    -78.287994    6.534335    0.346344    7.096216    -8.597338    2.940017    2.938517    52.249695    -4.413606    44.529160    -20.452698    13.474887    109.588219    14.896246    -0.854925    -7.733180    15.712502    -51.111794    -3.757878    -65.105148    60.644279    61.688934    5.724879    -1.830114    17.881319    -4.569318    -4.268696    4.199173    -15.487524    -47.762959    -5.626405    -12.829109    66.782288    9.229193    18.036728    1.023083    15.176453    -0.202326    -0.072762    0.778415    
-7.582866    60.182655    104.979729    4.190372    16.204311    170.491714    4.597650    28.515261    1.138744    -4.578023    1.254169    1.320603    1.495067    3.920558    0.459958    6.977671    4.248700    5.971684    -37.362190    28.705791    -44.194042    64.802750    -9.062091    -78.231880    6.720707    0.240156    6.029461    -8.630259    2.855405    2.928871    52.363327    -4.481059    44.616379    -18.945215    13.376584    109.493103    15.922437    -0.902850    -8.382805    15.714664    -51.102695    -3.755348    -65.098373    60.647507    61.668594    5.725898    -1.803256    17.886934    -4.606750    -4.315324    4.210380    -15.466849    -47.756741    -5.590902    -12.807575    66.778374    9.164862    18.026827    1.043099    15.198041    -0.189907    -0.094462    0.779930    
-7.577989    60.182709    104.979240    4.188944    16.202005    170.486038    4.532565    28.478971    1.089135    -4.509368    1.242598    1.219952    1.601616    3.977313    0.348159    6.958571    4.340013    6.045088    -37.401695    28.821537    -44.159313    65.703934    -8.722676    -78.141937    7.576344    0.339514    6.631761    -8.580021    2.912882    2.906195    52.490166    -4.502895    44.659473    -17.437716    13.304918    109.355530    17.153948    -0.995847    -8.674845    15.719164    -51.101414    -3.753824    -65.098740    60.650814    61.650860    5.738517    -1.812097    17.904938    -4.792278    -4.683183    3.914774    -15.461594    -47.757889    -5.581294    -12.793775    66.778732    9.145749    18.039698    1.031980    15.213242    -0.191142    -0.084896    0.765840    
-7.581451    60.179901    104.956993    4.183246    16.193962    170.483276    4.519573    28.452906    1.032730    -4.652367    1.622985    1.155439    1.889508    3.422619    0.207252    6.879168    4.398984    6.044238    -37.498978    28.874269    -44.058224    66.646873    -8.388214    -78.041519    8.450859    0.423614    7.215781    -8.586259    2.971207    2.923115    52.609276    -4.553121    44.697876    -15.934014    13.259586    109.165939    18.353289    -1.094130    -9.037533    15.704576    -51.104645    -3.762227    -65.142090    60.664158    61.721050    5.714064    -1.862616    17.888288    -4.583318    -4.291368    4.190153    -15.488253    -47.761951    -5.623042    -12.834887    66.801132    9.242394    18.023294    0.985443    15.179026    -0.184286    -0.108510    0.788594    
-7.577481    60.179390    104.956757    4.179022    16.191057    170.477264    4.467630    28.465656    1.013006    -4.595893    1.611404    1.056515    1.941597    3.401587    0.106021    6.856320    4.454576    6.089968    -37.596691    28.903242    -44.061069    67.540901    -8.082086    -77.943039    9.297966    0.481353    7.866059    -8.572989    2.993720    2.908346    52.708836    -4.583599    44.751656    -14.451687    13.229322    108.937599    19.558775    -1.188065    -9.349666    15.710245    -51.103676    -3.758780    -65.145256    60.661140    61.750584    5.722135    -1.870104    17.861223    -4.595333    -4.296794    4.217843    -15.482985    -47.767555    -5.622754    -12.860820    66.801422    9.261547    18.034996    0.972171    15.192657    -0.207556    -0.075926    0.800919    
-7.570603    60.177940    104.958809    4.176781    16.194162    170.473465    4.410592    28.444542    1.050565    -4.576191    1.963633    0.945432    2.125938    3.002670    -0.041890    6.864720    4.572354    6.096823    -37.780891    28.875813    -44.090134    68.283768    -7.829457    -77.867058    10.047856    0.477833    8.399803    -8.525976    3.047627    2.915993    52.731026    -4.658121    44.755043    -12.998489    13.204716    108.688881    20.728050    -1.252051    -9.562529    15.716887    -51.101017    -3.755384    -65.146011    60.660587    61.724483    5.726272    -1.849183    17.879509    -4.613067    -4.316863    4.228281    -15.476845    -47.769493    -5.614318    -12.858344    66.806442    9.273197    18.038622    0.972704    15.185410    -0.200657    -0.081530    0.789629    
-7.566078    60.176033    104.959473    4.172773    16.189472    170.467651    4.361935    28.461071    1.050231    -4.529042    1.955634    0.837791    2.168479    2.966768    -0.151461    6.847154    4.612006    6.135544    -37.946953    28.786947    -44.174446    68.861572    -7.667348    -77.831726    11.175290    0.466999    8.595041    -8.515600    3.056713    2.889005    52.784061    -4.642630    44.809139    -11.571651    13.190346    108.399246    21.861973    -1.355041    -9.912023    15.724853    -51.107079    -3.754295    -65.158875    60.655506    61.749199    5.723365    -1.853344    17.876596    -4.805197    -4.699530    3.917734    -15.456291    -47.777771    -5.607144    -12.915420    66.798584    9.245137    18.041576    0.997051    15.249655    -0.184313    -0.106311    0.784533    
-7.560559    60.173637    104.961098    4.167105    16.198181    170.466705    4.309067    28.499065    1.050261    -4.479089    1.836264    0.725323    2.190759    3.103257    -0.261705    6.834992    4.635523    6.180516    -37.682659    28.964159    -44.371536    69.302490    -7.588040    -77.720757    11.886081    0.523362    9.850748    -8.501250    3.047107    2.873835    52.832245    -4.625934    44.844185    -10.091039    13.210320    108.051964    23.065369    -1.499863    -10.281840    15.718810    -51.099117    -3.757728    -65.152199    60.655052    61.744404    5.703116    -1.873930    17.891775    -4.779221    -4.673508    3.894142    -15.457744    -47.776821    -5.617535    -12.959274    66.803391    9.296210    18.056759    0.997630    15.248508    -0.185639    -0.118175    0.811100    
-7.555886    60.171680    104.960884    4.168327    16.204544    170.454346    4.254512    28.523968    1.062815    -4.418827    1.822977    0.615241    2.197926    3.112403    -0.367994    6.835087    4.662327    6.228173    -37.525311    29.086672    -44.486164    69.714149    -7.591371    -77.589622    12.650781    0.540359    10.167209    -8.486591    3.037365    2.859404    52.848949    -4.572075    44.868229    -8.647456    13.232112    107.665901    24.244976    -1.632334    -10.719722    15.738417    -51.086876    -3.746270    -65.164406    60.643959    61.764278    5.725191    -1.873209    17.880413    -4.593709    -4.297571    4.210277    -15.443144    -47.775696    -5.616406    -12.991176    66.804420    9.324318    18.054308    0.970392    15.269029    -0.197365    -0.090828    0.796713    
-7.549675    60.170956    104.963470    4.159386    16.202776    170.453705    4.180466    28.614374    1.065993    -4.350417    1.748889    0.500524    2.212567    3.103099    -0.474626    6.876638    4.627028    6.245993    -37.575119    29.033894    -44.564667    69.804031    -7.688515    -77.517387    12.926048    0.454244    10.322343    -8.476675    2.956028    2.856626    52.863659    -4.498944    44.890965    -7.288983    13.242583    107.237579    25.347815    -1.764957    -11.211453    15.749003    -51.088421    -3.740430    -65.174858    60.626812    61.775318    5.716878    -1.858502    17.878403    -4.796586    -4.682505    3.931587    -15.450053    -47.784138    -5.619749    -12.989595    66.809914    9.322124    18.058958    0.982503    15.268851    -0.195238    -0.089402    0.787291    
-7.543790    60.170300    104.963745    4.153917    16.212584    170.450455    4.127683    28.626642    1.087818    -4.316782    1.766670    0.394900    2.224366    3.106357    -0.581610    6.875795    4.646764    6.277746    -38.733604    28.416389    -43.244793    29.356394    -18.109844    -90.238930    -8.043291    12.038219    4.548350    -8.465328    2.942992    2.854872    52.868267    -4.412852    44.907993    -5.812960    13.299677    106.734428    26.699749    -1.977438    -11.661817    15.742421    -51.077820    -3.744253    -65.166260    60.628910    61.785748    5.728921    -1.862792    17.867443    -4.791205    -4.684287    3.908190    -15.436695    -47.780495    -5.637678    -13.098573    66.806213    9.420557    18.077429    0.975606    15.282300    -0.207530    -0.075632    0.800274    
-7.538715    60.171432    104.964699    4.152750    16.214693    170.447006    4.074280    28.639553    1.096847    -4.303578    1.759001    0.298238    2.277637    3.152667    -0.688181    6.875532    4.660275    6.301785    -38.686638    28.506281    -43.276150    41.452465    -17.522165    -86.199188    -4.747229    3.687505    2.574803    -8.452868    2.930679    2.859687    52.862549    -4.303473    44.920589    -4.437778    13.335583    106.200081    27.934469    -2.129928    -12.158467    15.753750    -51.071903    -3.736377    -65.166176    60.622955    61.783211    5.727069    -1.860239    17.871218    -4.586623    -4.296996    4.187317    -15.424885    -47.782524    -5.639219    -13.132862    66.805794    9.442011    18.080160    0.980595    15.285274    -0.201227    -0.087609    0.802876    
